# xmcd
#
# Track frame offsets:
#	182
#	13070
#	27407
#	39670
#	50982
#	62995
#	74947
#	87882
#	96350
#	112327
#	125675
#	141350
#	158952
#	171625
#	184942
#	198682
#	216080
#	237877
#	251675
#	263217
#	275255
#	287665
#	301810
#	313225
#	327120
#
# Disc length: 4516 seconds
#
# Revision: 3
# Processed by: cddbd v1.5.2PL0 Copyright (c) Steve Scherf et al.
# Submitted via: audiograbber 1.83.01
#
DISCID=9b11a219
DTITLE=Various Artist - Blues With A Feelin' 4
DYEAR=1992
DGENRE=Blues
TTITLE0=Muddy Waters - (I'm Your) Hoochie Coochie Man
TTITLE1=Howlin' Wolf - I Walked From Dallas
TTITLE2=Elmore James - The Sky Is Crying
TTITLE3=Sonny Boy Williamson - Your Funeral - My Trial
TTITLE4=John Lee Hooker - Crawling King Snake
TTITLE5=BB King - Dark Is The Night (Part 1)
TTITLE6=Little Walter - Everybody Needs Somebody
TTITLE7=Big Joe Williams - Goin' Away, Won't Be Back 'Till Fall
TTITLE8=Howlin' Wolf - Blue Bird
TTITLE9=Leadbelly - Blackwater Blues
TTITLE10=Muddy Waters - I Can't Be Satisfied
TTITLE11=John Lee Hooker - You' re Leavin' Me Baby 
TTITLE12=Howlin' Wolf - Back Door Man
TTITLE13=Sonny Boy Williamson - Sad To Be Alone
TTITLE14=Muddy Waters - I'm Ready
TTITLE15=Mike Bloomfield - Jockey Blues
TTITLE16=Elmore James - Something Inside Of Me
TTITLE17=Little Walter - You're So Fine
TTITLE18=Johnny Guitar Watson - The Eagle Is Back
TTITLE19=John Lee Hooker - I'm In The Mood
TTITLE20=Howlin' Wolf - Goin' Back Home
TTITLE21=BB King - Whole Lotta Love
TTITLE22=Memphis Slim - Feelin' Low
TTITLE23=Little Walter - Take Me Back
TTITLE24=Muddy Waters - Goin' Home
EXTD=
EXTT0=Muddy Waters
EXTT1=Howlin' Wolf
EXTT2=Elmore James
EXTT3=Sonny Boy Williamson
EXTT4=John Lee Hooker
EXTT5=BB King
EXTT6=Little Walter
EXTT7=Big Joe Williams
EXTT8=Howlin' Wolf
EXTT9=Leadbelly
EXTT10=Muddy Waters
EXTT11=John Lee Hooker
EXTT12=Howlin' Wolf
EXTT13=Sonny Boy Williamson
EXTT14=Muddy Waters
EXTT15=Mike Bloomfield
EXTT16=Elmore James
EXTT17=Little Walter
EXTT18=Johnny Guitar Watson
EXTT19=John Lee Hooker
EXTT20=Howlin' Wolf
EXTT21=BB King
EXTT22=Memphis Slim
EXTT23=Little Walter
EXTT24=
PLAYORDER=
